<svg width="7" height="12" viewBox="0 0 7 12" fill="none" xmlns="http://www.w3.org/2000/svg">
<path d="M6.06002 0.219988C6.18668 0.219988 6.31335 0.266654 6.41335 0.366654C6.60668 0.559987 6.60668 0.879988 6.41335 1.07332L2.06668 5.41999C1.74668 5.73999 1.74668 6.25999 2.06668 6.57999L6.41335 10.9267C6.60668 11.12 6.60668 11.44 6.41335 11.6333C6.22002 11.8267 5.90002 11.8267 5.70668 11.6333L1.36002 7.28665C1.02002 6.94665 0.826684 6.48665 0.826684 5.99999C0.826684 5.51332 1.01335 5.05332 1.36002 4.71332L5.70668 0.366654C5.80668 0.273321 5.93335 0.219988 6.06002 0.219988Z" fill="white" fill-opacity="0.87"/>
</svg>
