<svg width="24" height="24" viewBox="0 0 24 24" fill="none" xmlns="http://www.w3.org/2000/svg">
<path d="M5.41 21.75C4.29 21.75 3.58 21.37 3.13 20.92C2.25 20.04 1.63 18.17 3.61 14.2L4.48 12.47C4.59 12.24 4.59 11.76 4.48 11.53L3.61 9.80001C1.62 5.83001 2.25 3.95001 3.13 3.08001C4 2.20001 5.88 1.57001 9.84 3.56001L18.4 7.84001C20.53 8.90001 21.7 10.38 21.7 12C21.7 13.62 20.53 15.1 18.41 16.16L9.85 20.44C7.91 21.41 6.47 21.75 5.41 21.75ZM5.41 3.75001C4.87 3.75001 4.45 3.88001 4.19 4.14001C3.46 4.86001 3.75 6.73001 4.95 9.12001L5.82 10.86C6.14 11.51 6.14 12.49 5.82 13.14L4.95 14.87C3.75 17.27 3.46 19.13 4.19 19.85C4.91 20.58 6.78 20.29 9.18 19.09L17.74 14.81C19.31 14.03 20.2 13 20.2 11.99C20.2 10.98 19.3 9.95001 17.73 9.17001L9.17 4.90001C7.65 4.14001 6.34 3.75001 5.41 3.75001Z" fill="#8687E7" fill-opacity="0.5"/>
<path d="M10.84 12.75H5.44C5.03 12.75 4.69 12.41 4.69 12C4.69 11.59 5.03 11.25 5.44 11.25H10.84C11.25 11.25 11.59 11.59 11.59 12C11.59 12.41 11.25 12.75 10.84 12.75Z" fill="#8687E7" fill-opacity="0.5"/>
</svg>
