<svg width="24" height="24" viewBox="0 0 24 24" fill="none" xmlns="http://www.w3.org/2000/svg">
<path d="M12 12.75C8.83 12.75 6.25 10.17 6.25 7C6.25 3.83 8.83 1.25 12 1.25C15.17 1.25 17.75 3.83 17.75 7C17.75 10.17 15.17 12.75 12 12.75Z" fill="white" fill-opacity="0.87"/>
<path d="M12 12.75C8.83 12.75 6.25 10.17 6.25 7C6.25 3.83 8.83 1.25 12 1.25C15.17 1.25 17.75 3.83 17.75 7C17.75 10.17 15.17 12.75 12 12.75Z" fill="white" fill-opacity="0.87"/>
<path d="M20.5901 22.75C3.41016 22.75 2.66016 22.41 2.66016 22C2.66016 18.55 12.0002 14.25 12.0002 14.25C12.0002 14.25 21.3401 18.55 21.3401 22C21.3401 22.41 20.5901 22.75 3.41016 22.75C3.00016 22.75 2.66016 22.41 2.66016 22C2.66016 17.73 6.85015 14.25 12.0002 14.25C17.1502 14.25 21.3401 17.73 21.3401 22C21.3401 22.41 21.0001 22.75 20.5901 22.75Z" fill="white" fill-opacity="0.87"/>
</svg>
